<svg width="18" height="18" viewBox="0 0 18 18" fill="none" xmlns="http://www.w3.org/2000/svg">
<g clip-path="url(#clip0_133_88)">
<path d="M17.4562 12.08L15.5496 5.20793C15.1424 3.73791 14.2553 2.4463 13.0293 1.53869C11.8034 0.631078 10.309 0.159612 8.78419 0.199329C7.25934 0.239046 5.79159 0.787664 4.61454 1.75787C3.43749 2.72807 2.61878 4.06411 2.28871 5.55333L0.813978 12.19C0.74262 12.5115 0.74436 12.845 0.819072 13.1657C0.893783 13.4865 1.03956 13.7864 1.24564 14.0433C1.45173 14.3002 1.71286 14.5075 2.00978 14.6501C2.3067 14.7926 2.63183 14.8666 2.96118 14.8667H5.60631C5.77462 15.6955 6.22431 16.4407 6.87919 16.976C7.53406 17.5113 8.35385 17.8037 9.19965 17.8037C10.0454 17.8037 10.8652 17.5113 11.5201 16.976C12.175 16.4407 12.6247 15.6955 12.793 14.8667H15.3376C15.6765 14.8665 16.0108 14.7881 16.3144 14.6375C16.6179 14.4869 16.8826 14.2682 17.0878 13.9984C17.2929 13.7287 17.433 13.4152 17.497 13.0824C17.561 12.7497 17.5466 12.4066 17.4562 12.08ZM9.19965 16.3333C8.74625 16.3315 8.30452 16.1895 7.93487 15.927C7.56521 15.6645 7.28571 15.2941 7.13458 14.8667H11.2647C11.1136 15.2941 10.8341 15.6645 10.4644 15.927C10.0948 16.1895 9.65304 16.3315 9.19965 16.3333ZM15.9206 13.1103C15.8522 13.201 15.7635 13.2745 15.6617 13.3248C15.5598 13.3751 15.4476 13.4008 15.334 13.4H2.96118C2.85137 13.4 2.74297 13.3753 2.64397 13.3278C2.54498 13.2803 2.45792 13.2111 2.38922 13.1255C2.32052 13.0398 2.27193 12.9398 2.24705 12.8329C2.22216 12.7259 2.22162 12.6147 2.24545 12.5075L3.72018 5.87087C3.98004 4.70209 4.62314 3.65371 5.54725 2.8924C6.47136 2.13108 7.62344 1.70053 8.82035 1.66917C10.0173 1.63782 11.1903 2.00746 12.153 2.71934C13.1157 3.43123 13.8128 4.44449 14.1335 5.59807L16.0402 12.4701C16.0713 12.5788 16.0767 12.6932 16.056 12.8043C16.0352 12.9155 15.9889 13.0202 15.9206 13.1103Z" fill="#818181"/>
</g>
<defs>
<clipPath id="clip0_133_88">
<rect width="17.6" height="17.6" fill="white" transform="translate(0.399902 0.200001)"/>
</clipPath>
</defs>
</svg>
