<svg width="19" height="18" viewBox="0 0 19 18" fill="none" xmlns="http://www.w3.org/2000/svg">
<g clip-path="url(#clip0_133_85)">
<path d="M9.5998 0.200001C4.74734 0.200001 0.799805 4.14753 0.799805 9C0.799805 13.8525 4.74734 17.8 9.5998 17.8H18.3998V9C18.3998 4.14753 14.4523 0.200001 9.5998 0.200001ZM16.9331 16.3333H9.5998C5.5562 16.3333 2.26647 13.0436 2.26647 9C2.26647 4.9564 5.5562 1.66667 9.5998 1.66667C13.6434 1.66667 16.9331 4.9564 16.9331 9V16.3333ZM10.6998 9C10.6998 9.6072 10.207 10.1 9.5998 10.1C8.99261 10.1 8.4998 9.6072 8.4998 9C8.4998 8.3928 8.99261 7.9 9.5998 7.9C10.207 7.9 10.6998 8.3928 10.6998 9ZM14.3665 9C14.3665 9.6072 13.8737 10.1 13.2665 10.1C12.6593 10.1 12.1665 9.6072 12.1665 9C12.1665 8.3928 12.6593 7.9 13.2665 7.9C13.8737 7.9 14.3665 8.3928 14.3665 9ZM7.03314 9C7.03314 9.6072 6.54034 10.1 5.93314 10.1C5.32594 10.1 4.83314 9.6072 4.83314 9C4.83314 8.3928 5.32594 7.9 5.93314 7.9C6.54034 7.9 7.03314 8.3928 7.03314 9Z" fill="#818181"/>
</g>
<defs>
<clipPath id="clip0_133_85">
<rect width="17.6" height="17.6" fill="white" transform="translate(0.799805 0.200001)"/>
</clipPath>
</defs>
</svg>
