<svg width="36" height="36" viewBox="0 0 36 36" fill="none" xmlns="http://www.w3.org/2000/svg">
<path d="M23.501 22.6445C24.2618 22.8981 25.0841 22.4869 25.3377 21.7261C25.5913 20.9654 25.1801 20.1431 24.4194 19.8895L23.501 22.6445ZM19.0597 19.6335H17.6077C17.6077 20.2585 18.0076 20.8133 18.6005 21.011L19.0597 19.6335ZM20.5117 12.8031C20.5117 12.0012 19.8616 11.3511 19.0597 11.3511C18.2578 11.3511 17.6077 12.0012 17.6077 12.8031H20.5117ZM23.9602 21.267L24.4194 19.8895L19.5189 18.256L19.0597 19.6335L18.6005 21.011L23.501 22.6445L23.9602 21.267ZM19.0597 19.6335H20.5117V12.8031H19.0597H17.6077V19.6335H19.0597ZM32.1277 18H30.6757C30.6757 24.4153 25.475 29.616 19.0597 29.616V31.068V32.52C27.0789 32.52 33.5797 26.0192 33.5797 18H32.1277ZM19.0597 31.068V29.616C12.6444 29.616 7.4437 24.4153 7.4437 18H5.9917H4.5397C4.5397 26.0192 11.0405 32.52 19.0597 32.52V31.068ZM5.9917 18H7.4437C7.4437 11.5846 12.6444 6.38398 19.0597 6.38398V4.93198V3.47998C11.0405 3.47998 4.5397 9.9808 4.5397 18H5.9917ZM19.0597 4.93198V6.38398C25.475 6.38398 30.6757 11.5846 30.6757 18H32.1277H33.5797C33.5797 9.9808 27.0789 3.47998 19.0597 3.47998V4.93198Z" fill="#D12953"/>
</svg>
