<svg width="20" height="20" viewBox="0 0 20 20" fill="none" xmlns="http://www.w3.org/2000/svg">
<g clip-path="url(#clip0_133_455)">
<path d="M18.3333 6.38595V12.9168C18.3333 15.4443 16.2775 17.5001 13.75 17.5001H12.4992V19.3268C12.4992 19.9235 11.78 20.2243 11.355 19.8051L8.745 17.2293C8.19917 16.691 8.19917 15.8101 8.745 15.271L11.355 12.6951C11.78 12.276 12.4992 12.5768 12.4992 13.1735V15.0001H13.75C14.8983 15.0001 15.8333 14.0651 15.8333 12.9168V6.38595C14.8483 5.91762 14.1667 4.91345 14.1667 3.75012C14.1667 2.13929 15.4725 0.833453 17.0833 0.833453C18.6942 0.833453 20 2.13929 20 3.75012C20 4.91345 19.3183 5.91762 18.3333 6.38595ZM11.2708 4.71262C11.8075 4.18345 11.8075 3.31679 11.2708 2.78762L8.64417 0.195119C8.21917 -0.224047 7.5 0.0767859 7.5 0.673453V2.50012H6.25C3.7225 2.50012 1.66667 4.55595 1.66667 7.08345V13.6143C0.681667 14.0826 0 15.0868 0 16.2501C0 17.861 1.30583 19.1668 2.91667 19.1668C4.5275 19.1668 5.83333 17.861 5.83333 16.2501C5.83333 15.0868 5.15167 14.0826 4.16667 13.6143V7.08345C4.16667 5.93512 5.10167 5.00012 6.25 5.00012H7.5V6.82679C7.5 7.42345 8.21917 7.72429 8.64417 7.30512L11.2708 4.71262Z" fill="#ACACAC"/>
</g>
<defs>
<clipPath id="clip0_133_455">
<rect width="20" height="20" fill="white"/>
</clipPath>
</defs>
</svg>
