<svg width="20" height="20" viewBox="0 0 20 20" fill="none" xmlns="http://www.w3.org/2000/svg">
<g clip-path="url(#clip0_133_427)">
<path d="M17.5 9.16667H13.3333C11.955 9.16667 10.8333 10.2883 10.8333 11.6667V17.5C10.8333 18.8783 11.955 20 13.3333 20H17.5C18.8783 20 20 18.8783 20 17.5V11.6667C20 10.2883 18.8783 9.16667 17.5 9.16667ZM16.6667 16.6667H14.1667C13.7058 16.6667 13.3333 16.2933 13.3333 15.8333C13.3333 15.3733 13.7058 15 14.1667 15H16.6667C17.1275 15 17.5 15.3733 17.5 15.8333C17.5 16.2933 17.1275 16.6667 16.6667 16.6667ZM16.6667 13.3308H14.1667C13.7058 13.3308 13.3333 12.9575 13.3333 12.4975C13.3333 12.0375 13.7058 11.6642 14.1667 11.6642H16.6667C17.1275 11.6642 17.5 12.0375 17.5 12.4975C17.5 12.9575 17.1275 13.3308 16.6667 13.3308ZM2.5 5C2.5 2.2425 4.7425 0 7.5 0C10.2575 0 12.5 2.2425 12.5 5C12.5 7.7575 10.2575 10 7.5 10C4.7425 10 2.5 7.7575 2.5 5ZM10.0217 20H0.833335C0.369168 20 -0.000831929 19.6167 1.40489e-06 19.1525C0.0075014 15.0233 3.36917 11.6667 7.5 11.6667C8.07334 11.6667 8.63 11.7375 9.16667 11.86V17.5C9.16667 18.4417 9.4925 19.3017 10.0217 20Z" fill="#ACACAC"/>
</g>
<defs>
<clipPath id="clip0_133_427">
<rect width="20" height="20" fill="white"/>
</clipPath>
</defs>
</svg>
