<svg width="16" height="16" viewBox="0 0 16 16" fill="none" xmlns="http://www.w3.org/2000/svg">
<path d="M10.5 1.33333H10.3931C10.135 0.557333 9.44 0 8.625 0H7.375C6.56 0 5.865 0.557333 5.60687 1.33333H5.5C3.77688 1.33333 2.375 2.82867 2.375 4.66667V12.6667C2.375 14.5047 3.77688 16 5.5 16H10.5C12.2231 16 13.625 14.5047 13.625 12.6667V4.66667C13.625 2.82867 12.2231 1.33333 10.5 1.33333ZM12.375 12.6667C12.375 13.7693 11.5337 14.6667 10.5 14.6667H5.5C4.46625 14.6667 3.625 13.7693 3.625 12.6667V4.66667C3.625 3.564 4.46625 2.66667 5.5 2.66667H6.125C6.47 2.66667 6.75 2.368 6.75 2C6.75 1.632 7.03062 1.33333 7.375 1.33333H8.625C8.97 1.33333 9.25 1.63267 9.25 2C9.25 2.36733 9.52938 2.66667 9.875 2.66667H10.5C11.5337 2.66667 12.375 3.564 12.375 4.66667V12.6667ZM10.9419 6.77667C11.1863 7.03733 11.1863 7.45867 10.9419 7.71933L8.71563 10.094C8.35813 10.4753 7.88937 10.668 7.42062 10.668C6.97813 10.668 6.535 10.4973 6.18313 10.1533L5.07812 9.07267C4.82375 8.82333 4.80625 8.402 5.03938 8.13067C5.2725 7.86 5.66812 7.84133 5.9225 8.08933L7.0275 9.17C7.2575 9.39467 7.61062 9.38667 7.83187 9.15133L10.0581 6.77667C10.3025 6.516 10.6975 6.516 10.9419 6.77667Z" fill="#7C7C7C"/>
</svg>
