<svg width="20" height="20" viewBox="0 0 20 20" fill="none" xmlns="http://www.w3.org/2000/svg">
<g clip-path="url(#clip0_133_416)">
<path d="M1.66668 9.16668H10.8334C11.7538 9.16668 12.5 8.42047 12.5 7.5V1.66668C12.5 0.746211 11.7538 0 10.8333 0H1.66668C0.746211 0 0 0.746211 0 1.66668V7.5C0 8.42047 0.746211 9.16668 1.66668 9.16668Z" fill="#ACACAC"/>
<path d="M19.7149 0.735C19.4051 0.275547 18.8873 7.8125e-05 18.3332 0H15.8332C14.9127 0 14.1665 0.746211 14.1665 1.66668V7.5C14.1665 8.42047 14.9127 9.16668 15.8332 9.16668H18.3332C19.2537 9.16668 19.9999 8.42047 19.9999 7.5V1.66668C20.0004 1.33457 19.9011 1.00996 19.7149 0.735Z" fill="#ACACAC"/>
<path d="M5.09832 11.1183C4.82336 10.9321 4.49875 10.8328 4.16664 10.8333H1.66664C0.746211 10.8333 0 11.5795 0 12.5V18.3333C0 19.2538 0.746211 20 1.66668 20H4.16668C5.08715 20 5.83336 19.2538 5.83336 18.3333V12.5C5.83324 11.9459 5.55777 11.4281 5.09832 11.1183Z" fill="#ACACAC"/>
<path d="M19.265 11.1183C18.99 10.9321 18.6654 10.8328 18.3333 10.8333H9.16668C8.24621 10.8333 7.5 11.5795 7.5 12.5V18.3333C7.5 19.2538 8.24621 20 9.16668 20H18.3334C19.2538 20 20 19.2538 20 18.3333V12.5C19.9999 11.9459 19.7245 11.4281 19.265 11.1183Z" fill="#ACACAC"/>
</g>
<defs>
<clipPath id="clip0_133_416">
<rect width="20" height="20" fill="white"/>
</clipPath>
</defs>
</svg>
