<svg width="133" height="58" viewBox="0 0 133 58" fill="none" xmlns="http://www.w3.org/2000/svg">
<rect x="5.05078" y="25.2095" width="30.3282" height="6" rx="3" transform="rotate(-37.6683 5.05078 25.2095)" fill="#A16ECA"/>
<rect x="15" y="27.3885" width="17" height="6" rx="3" transform="rotate(-37.6683 15 27.3885)" fill="#A16ECA"/>
<rect x="5" y="15.3885" width="17" height="6" rx="3" transform="rotate(-37.6683 5 15.3885)" fill="#A16ECA"/>
<path d="M49.4168 22.1818V26.1591H36.5191V22.1818H49.4168ZM39.7435 44V20.1222C39.7435 18.6544 40.0465 17.4328 40.6526 16.4574C41.2681 15.482 42.092 14.7528 43.1242 14.2699C44.1564 13.7869 45.3022 13.5455 46.5617 13.5455C47.4519 13.5455 48.2426 13.6165 48.9339 13.7585C49.6251 13.9006 50.1365 14.0284 50.468 14.142L49.4452 18.1193C49.2274 18.053 48.9528 17.9867 48.6214 17.9205C48.2899 17.8447 47.9206 17.8068 47.5134 17.8068C46.557 17.8068 45.8799 18.0388 45.4822 18.5028C45.0939 18.9574 44.8998 19.6108 44.8998 20.4631V44H39.7435ZM53.4438 44V22.1818H58.4296V25.8182H58.6569C59.0546 24.5587 59.7364 23.5881 60.7023 22.9062C61.6777 22.215 62.7904 21.8693 64.0404 21.8693C64.3245 21.8693 64.6417 21.8835 64.9921 21.9119C65.3519 21.9309 65.6502 21.964 65.887 22.0114V26.7415C65.6692 26.6657 65.3235 26.5994 64.8501 26.5426C64.386 26.4763 63.9362 26.4432 63.5006 26.4432C62.5631 26.4432 61.7203 26.6468 60.9722 27.054C60.2336 27.4517 59.6512 28.0057 59.2251 28.7159C58.7989 29.4261 58.5858 30.2453 58.5858 31.1733V44H53.4438ZM75.191 44.4403C73.8084 44.4403 72.5631 44.1941 71.4552 43.7017C70.3567 43.1998 69.4855 42.4612 68.8415 41.4858C68.2071 40.5104 67.8898 39.3078 67.8898 37.8778C67.8898 36.6468 68.1171 35.6288 68.5716 34.8239C69.0262 34.0189 69.6465 33.375 70.4324 32.892C71.2184 32.4091 72.1038 32.0445 73.0887 31.7983C74.083 31.5426 75.1105 31.358 76.1711 31.2443C77.4495 31.1117 78.4864 30.9934 79.2819 30.8892C80.0773 30.7756 80.655 30.6051 81.0148 30.3778C81.3841 30.1411 81.5688 29.7765 81.5688 29.2841V29.1989C81.5688 28.1288 81.2516 27.3002 80.6171 26.7131C79.9826 26.1259 79.0688 25.8324 77.8756 25.8324C76.6162 25.8324 75.6171 26.107 74.8785 26.6562C74.1493 27.2055 73.6569 27.8542 73.4012 28.6023L68.6001 27.9205C68.9788 26.5947 69.6038 25.4867 70.4751 24.5966C71.3463 23.697 72.4116 23.0246 73.6711 22.5795C74.9305 22.125 76.3226 21.8977 77.8472 21.8977C78.8983 21.8977 79.9448 22.0208 80.9864 22.267C82.0281 22.5133 82.9798 22.9205 83.8415 23.4886C84.7033 24.0473 85.3946 24.8097 85.9154 25.7756C86.4457 26.7415 86.7109 27.9489 86.7109 29.3977V44H81.7677V41.0028H81.5972C81.2847 41.6089 80.8444 42.1771 80.2762 42.7074C79.7175 43.2282 79.012 43.6496 78.1597 43.9716C77.3169 44.2841 76.3273 44.4403 75.191 44.4403ZM76.5262 40.6619C77.5584 40.6619 78.4533 40.4583 79.2108 40.0511C79.9684 39.6345 80.5508 39.0852 80.958 38.4034C81.3747 37.7216 81.583 36.9782 81.583 36.1733V33.6023C81.422 33.7348 81.1474 33.858 80.7591 33.9716C80.3804 34.0852 79.9542 34.1847 79.4807 34.2699C79.0073 34.3551 78.5385 34.4309 78.0745 34.4972C77.6105 34.5634 77.208 34.6203 76.8671 34.6676C76.1001 34.7718 75.4135 34.9422 74.8074 35.179C74.2014 35.4157 73.7232 35.7472 73.3728 36.1733C73.0224 36.59 72.8472 37.1297 72.8472 37.7926C72.8472 38.7396 73.1929 39.4545 73.8841 39.9375C74.5754 40.4205 75.4561 40.6619 76.5262 40.6619ZM96.5688 37.1534L96.5546 30.946H97.3785L105.219 22.1818H111.228L101.583 32.9205H100.518L96.5688 37.1534ZM91.8813 44V14.9091H97.0233V44H91.8813ZM105.574 44L98.4722 34.071L101.938 30.4489L111.725 44H105.574ZM125.55 22.1818V26.1591H113.007V22.1818H125.55ZM116.104 16.9545H121.246V37.4375C121.246 38.1288 121.35 38.6591 121.558 39.0284C121.776 39.3883 122.06 39.6345 122.41 39.767C122.761 39.8996 123.149 39.9659 123.575 39.9659C123.897 39.9659 124.191 39.9422 124.456 39.8949C124.73 39.8475 124.939 39.8049 125.081 39.767L125.947 43.7869C125.673 43.8816 125.28 43.9858 124.768 44.0994C124.266 44.2131 123.651 44.2794 122.922 44.2983C121.634 44.3362 120.474 44.142 119.442 43.7159C118.409 43.2803 117.59 42.608 116.984 41.6989C116.388 40.7898 116.094 39.6534 116.104 38.2898V16.9545Z" fill="#222222"/>
</svg>
