<svg width="15" height="16" viewBox="0 0 15 16" fill="none" xmlns="http://www.w3.org/2000/svg">
<g clip-path="url(#clip0_133_186)">
<path d="M11.66 1.08126L4.04001 8.70126C3.74898 8.99073 3.51825 9.33505 3.36119 9.71429C3.20413 10.0935 3.12385 10.5002 3.12501 10.9106V11.75C3.12501 11.9158 3.19086 12.0747 3.30807 12.192C3.42528 12.3092 3.58425 12.375 3.75001 12.375H4.58939C4.99986 12.3762 5.40649 12.2959 5.78574 12.1388C6.16498 11.9818 6.5093 11.751 6.79876 11.46L14.4188 3.84001C14.784 3.47387 14.9891 2.97781 14.9891 2.46064C14.9891 1.94347 14.784 1.44741 14.4188 1.08126C14.0473 0.726198 13.5532 0.528046 13.0394 0.528046C12.5255 0.528046 12.0315 0.726198 11.66 1.08126ZM13.535 2.95626L5.91501 10.5763C5.56259 10.9265 5.08627 11.1237 4.58939 11.125H4.37501V10.9106C4.37631 10.4138 4.57349 9.93744 4.92376 9.58502L12.5438 1.96501C12.6773 1.83749 12.8548 1.76632 13.0394 1.76632C13.224 1.76632 13.4015 1.83749 13.535 1.96501C13.6662 2.09659 13.7399 2.27482 13.7399 2.46064C13.7399 2.64646 13.6662 2.82469 13.535 2.95626Z" fill="#7C7C7C"/>
<path d="M14.375 6.11188C14.2092 6.11188 14.0503 6.17772 13.9331 6.29493C13.8158 6.41214 13.75 6.57112 13.75 6.73688V9.875H11.25C10.7527 9.875 10.2758 10.0725 9.92418 10.4242C9.57255 10.7758 9.375 11.2527 9.375 11.75V14.25H3.125C2.62772 14.25 2.15081 14.0525 1.79918 13.7008C1.44754 13.3492 1.25 12.8723 1.25 12.375V3.625C1.25 3.12772 1.44754 2.65081 1.79918 2.29918C2.15081 1.94754 2.62772 1.75 3.125 1.75H8.77625C8.94201 1.75 9.10098 1.68415 9.21819 1.56694C9.3354 1.44973 9.40125 1.29076 9.40125 1.125C9.40125 0.95924 9.3354 0.800269 9.21819 0.683058C9.10098 0.565848 8.94201 0.5 8.77625 0.5H3.125C2.2965 0.500992 1.50222 0.830551 0.916387 1.41639C0.330551 2.00222 0.000992411 2.7965 0 3.625L0 12.375C0.000992411 13.2035 0.330551 13.9978 0.916387 14.5836C1.50222 15.1695 2.2965 15.499 3.125 15.5H10.2144C10.6249 15.5012 11.0317 15.4209 11.411 15.2638C11.7904 15.1068 12.1348 14.8761 12.4244 14.585L14.0844 12.9238C14.3755 12.6343 14.6063 12.29 14.7634 11.9108C14.9206 11.5315 15.001 11.1249 15 10.7144V6.73688C15 6.57112 14.9342 6.41214 14.8169 6.29493C14.6997 6.17772 14.5408 6.11188 14.375 6.11188ZM11.5406 13.7013C11.2894 13.9519 10.9717 14.1254 10.625 14.2013V11.75C10.625 11.5842 10.6908 11.4253 10.8081 11.3081C10.9253 11.1908 11.0842 11.125 11.25 11.125H13.7031C13.6258 11.4709 13.4525 11.7881 13.2031 12.04L11.5406 13.7013Z" fill="#7C7C7C"/>
</g>
<defs>
<clipPath id="clip0_133_186">
<rect width="15" height="15" fill="white" transform="translate(0 0.5)"/>
</clipPath>
</defs>
</svg>
